<svg width="28" height="22" xmlns="http://www.w3.org/2000/svg"><g fill="#444" fill-rule="evenodd"><path d="M17.422 20.46a1.107 1.107 0 0 1-.09.478.907.907 0 0 1-.24.32.957.957 0 0 1-.34.185 1.338 1.338 0 0 1-.785 0 .969.969 0 0 1-.342-.184.893.893 0 0 1-.24-.321 1.125 1.125 0 0 1-.09-.479v-1.321h.502v1.276a.81.81 0 0 0 .044.282.47.47 0 0 0 .12.189.446.446 0 0 0 .179.105.765.765 0 0 0 .44 0 .448.448 0 0 0 .18-.105.476.476 0 0 0 .119-.189.81.81 0 0 0 .043-.282v-1.276h.503l-.003 1.321zm-4.635-1.379a.677.677 0 0 0-.606.335v-.278h-.493v2.293h.498v-1.276c0-.378.163-.59.479-.59a.815.815 0 0 1 .31.057l.154-.479a1.064 1.064 0 0 0-.354-.062h.012zm1.775 0a.678.678 0 0 0-.605.335v-.278h-.493v2.293h.498v-1.276c0-.378.162-.59.478-.59a.813.813 0 0 1 .311.057l.154-.479a1.066 1.066 0 0 0-.355-.062h.012zm-6.617 1.197a1.158 1.158 0 0 0 .348.868c.233.227.55.346.875.328a1.197 1.197 0 0 0 .826-.273l-.24-.402a1.007 1.007 0 0 1-.6.206.735.735 0 0 1-.693-.733c0-.39.304-.712.693-.734.217.002.428.074.6.206l.24-.402a1.197 1.197 0 0 0-.826-.273 1.16 1.16 0 0 0-.875.328 1.158 1.158 0 0 0-.348.868v.012zm11.873-.958a1.713 1.713 0 0 0-.936-.24c-.582 0-.957.278-.957.735 0 .374.277.606.792.678l.24.033c.272.038.401.11.401.24 0 .177-.182.277-.524.277a1.222 1.222 0 0 1-.763-.24l-.24.388c.291.203.64.307.994.297.662 0 1.046-.31 1.046-.749 0-.438-.302-.615-.802-.687l-.24-.033c-.215-.029-.387-.072-.387-.225 0-.153.163-.268.435-.268.252.003.5.07.718.196l.223-.402zm-8.719-.964a.346.346 0 0 1-.103.25.346.346 0 0 1-.25.1.342.342 0 0 1-.25-.101.342.342 0 0 1-.1-.25.347.347 0 0 1 .1-.25.346.346 0 0 1 .25-.103.35.35 0 0 1 .249.097.35.35 0 0 1 .107.245l-.003.012zm-.603 3.084H11v-2.292h-.503zM10.17 8.616a9.079 9.079 0 0 1 3.373-7.062l-.047-.033a8.75 8.75 0 0 0-.465-.3l-.07-.04A8.548 8.548 0 0 0 12.45.9l-.024-.01a8.666 8.666 0 0 0-.539-.244l-.045-.02a8.476 8.476 0 0 0-.55-.199l-.079-.026a8.655 8.655 0 0 0-.552-.154l-.094-.023a8.778 8.778 0 0 0-.565-.111L9.909.099a8.593 8.593 0 0 0-.591-.07L9.25.025A8.719 8.719 0 0 0 8.615 0a8.615 8.615 0 1 0 .636 17.206l.067-.005a8.306 8.306 0 0 0 .591-.07l.092-.013a8.778 8.778 0 0 0 .565-.112l.094-.022a8.656 8.656 0 0 0 .552-.155l.08-.026a8.77 8.77 0 0 0 .55-.2l.044-.018a8.666 8.666 0 0 0 .539-.244 2.323 2.323 0 0 0 .024-.011 8.548 8.548 0 0 0 .513-.28l.069-.04a8.602 8.602 0 0 0 .465-.3 2.065 2.065 0 0 0 .047-.033 9.079 9.079 0 0 1-3.373-7.062M19.263 0c-.214 0-.425.01-.635.025L18.56.03a8.544 8.544 0 0 0-.59.07l-.092.014a8.456 8.456 0 0 0-.566.111 8.666 8.666 0 0 0-.094.023 8.507 8.507 0 0 0-.552.154l-.08.026a8.417 8.417 0 0 0-.549.2l-.044.019a8.55 8.55 0 0 0-.54.243L15.43.9a8.629 8.629 0 0 0-.513.28 5.043 5.043 0 0 0-.069.04 8.349 8.349 0 0 0-.466.3 1.624 1.624 0 0 0-.047.033 9.079 9.079 0 0 1 0 14.124 8.586 8.586 0 0 0 .513.334l.068.04a8.668 8.668 0 0 0 .537.29c.177.087.357.168.54.244l.044.019a8.561 8.561 0 0 0 .55.2l.079.026c.181.057.365.108.552.153l.094.023c.186.043.375.08.565.112l.093.013c.194.03.391.054.59.07l.068.004A8.615 8.615 0 1 0 19.263 0"/><path d="M13.94 15.385a8.597 8.597 0 0 0 3.29-6.77 8.596 8.596 0 0 0-3.29-6.77 8.598 8.598 0 0 0-3.292 6.77 8.598 8.598 0 0 0 3.291 6.77"/></g></svg>