<svg width="28" height="22" viewBox="0 0 28 22" xmlns="http://www.w3.org/2000/svg"><g fill="#444" fill-rule="evenodd"><path d="M17.4222 20.4594a1.1074 1.1074 0 0 1-.091.4786.9075.9075 0 0 1-.2392.3207.9567.9567 0 0 1-.3399.184 1.3377 1.3377 0 0 1-.785 0 .969.969 0 0 1-.3421-.184.8935.8935 0 0 1-.2394-.3207 1.1253 1.1253 0 0 1-.0909-.4786V19.138h.5026v1.2758a.8094.8094 0 0 0 .0433.2824.4705.4705 0 0 0 .1196.1888.4463.4463 0 0 0 .1795.1055.7655.7655 0 0 0 .4401 0 .4479.4479 0 0 0 .1795-.1055.4757.4757 0 0 0 .1197-.1888.8092.8092 0 0 0 .043-.2824V19.138h.5026l-.0024 1.3213zM12.7868 19.081a.6773.6773 0 0 0-.6055.3348v-.2777h-.493v2.2927h.4978v-1.2756c0-.378.1627-.5908.4786-.5908a.8145.8145 0 0 1 .3111.0574l.1532-.4786a1.0642 1.0642 0 0 0-.3542-.0623h.012zM14.5623 19.081a.6776.6776 0 0 0-.6054.3348v-.2777h-.493v2.2927h.4978v-1.2756c0-.378.1627-.5908.4786-.5908a.8128.8128 0 0 1 .3111.0574l.1534-.4786a1.0656 1.0656 0 0 0-.3544-.0623h.012zM7.9454 20.2775a1.1576 1.1576 0 0 0 .3475.868c.2326.2276.5504.3468.8754.3286a1.1974 1.1974 0 0 0 .8256-.273l-.2393-.4019a1.007 1.007 0 0 1-.6007.2056.7346.7346 0 0 1-.6928-.7333c0-.3896.304-.7114.6928-.7337.2173.0022.428.0744.6007.206l.2393-.402a1.1974 1.1974 0 0 0-.8256-.273 1.1592 1.1592 0 0 0-.8754.3285 1.1576 1.1576 0 0 0-.3475.868v.0122zM19.8177 19.3203a1.7128 1.7128 0 0 0-.9355-.2394c-.5817 0-.9572.2774-.9572.7345 0 .3736.2773.6057.7919.6773l.2393.0335c.2728.0383.402.1103.402.2393 0 .177-.1818.2776-.5238.2776a1.2223 1.2223 0 0 1-.7637-.2393l-.2393.3877c.2908.203.639.307.9934.297.6627 0 1.0458-.3111 1.0458-.749 0-.438-.3018-.6154-.802-.687l-.2392-.0334c-.2152-.0288-.3877-.072-.3877-.2252 0-.153.163-.268.4355-.268.2523.0033.4992.0708.718.1964l.2225-.402zM11.0995 18.3557a.3458.3458 0 0 1-.1034.2494.3465.3465 0 0 1-.2508.1.3416.3416 0 0 1-.2491-.1002.3416.3416 0 0 1-.1003-.2492.3475.3475 0 0 1 .1-.251.3465.3465 0 0 1 .2494-.1031.3503.3503 0 0 1 .2494.0971.35.35 0 0 1 .1072.245l-.0024.012zM10.4964 21.4405h.5026V19.148h-.5026zM10.1697 8.6152c0-2.8481 1.3172-5.3935 3.3734-7.0622-.0156-.011-.0314-.0218-.0471-.0326a8.7495 8.7495 0 0 0-.465-.3003c-.023-.0137-.0465-.0268-.0694-.0402a8.5476 8.5476 0 0 0-.5127-.2793c-.0079-.004-.016-.0077-.0241-.0115a8.6656 8.6656 0 0 0-.5387-.2434c-.0151-.0062-.03-.0129-.045-.0189a8.4765 8.4765 0 0 0-.5493-.1996c-.0263-.0086-.0528-.018-.0794-.0263a8.6545 8.6545 0 0 0-.5519-.1539c-.0313-.0076-.0627-.0153-.0943-.0227a8.778 8.778 0 0 0-.5655-.1115c-.0304-.0048-.061-.0091-.0916-.014a8.5926 8.5926 0 0 0-.5914-.0693C9.2955.0275 9.273.0266 9.2505.0249A8.7185 8.7185 0 0 0 8.615 0C3.8573 0 0 3.8573 0 8.6152c0 4.758 3.8573 8.6151 8.6151 8.6151.214 0 .4255-.0095.6354-.0246.0225-.0017.045-.0026.0672-.0048a8.306 8.306 0 0 0 .5914-.0696c.0306-.0046.0612-.0087.0916-.0137a8.7779 8.7779 0 0 0 .5655-.1115c.0316-.0074.063-.015.0943-.0225a8.656 8.656 0 0 0 .5519-.1541c.0266-.0084.0531-.0175.0794-.0261a8.77 8.77 0 0 0 .5493-.1996c.015-.0062.0299-.013.045-.0191a8.6656 8.6656 0 0 0 .5387-.2434 2.3231 2.3231 0 0 0 .0241-.0115 8.5476 8.5476 0 0 0 .5127-.2793c.023-.0134.0464-.0263.0694-.0402a8.6016 8.6016 0 0 0 .465-.3003 2.0647 2.0647 0 0 0 .0471-.0326c-2.0562-1.6685-3.3734-4.2141-3.3734-7.0622M19.2634.0001c-.214 0-.4255.0096-.6354.025-.0225.0016-.0452.0023-.0675.0042a8.5442 8.5442 0 0 0-.5909.0697c-.0308.0045-.0615.0088-.0921.0139a8.4562 8.4562 0 0 0-.5653.1115c-.0316.0074-.063.015-.0943.0227a8.5066 8.5066 0 0 0-.552.1539c-.0266.0084-.0527.0175-.0795.0263a8.4166 8.4166 0 0 0-.549.1994c-.0153.0062-.0297.0129-.0448.0189a8.5492 8.5492 0 0 0-.5394.2436c-.0076.0038-.0158.0074-.0237.0113a8.6286 8.6286 0 0 0-.513.2797 5.0425 5.0425 0 0 0-.0685.0397c-.159.095-.314.196-.4657.3009a1.6244 1.6244 0 0 0-.047.0323c2.056 1.6685 3.3735 4.2138 3.3735 7.0622 0 2.8479-1.3175 5.3937-3.3734 7.062a8.5859 8.5859 0 0 0 .5126.3334c.023.0136.0455.0263.0684.0397.1678.0983.3384.1926.5131.2797.008.0036.016.0072.0237.0113.1764.0868.3564.168.5394.2434.0151.0062.0295.0129.0448.0189a8.561 8.561 0 0 0 .549.1996c.0268.0088.0529.0179.0794.0263.1814.0574.3657.1084.5521.1539.0314.0076.0627.0153.0943.0225.1862.0433.3746.0804.5653.1117.0306.0048.0613.0089.0921.0137.1948.0296.3918.0536.591.0696.0222.002.0449.0029.0674.0045.2099.0154.4214.025.6354.025 4.7578 0 8.6149-3.8574 8.6149-8.6152 0-4.7581-3.857-8.6152-8.615-8.6152"/><path d="M13.9392 15.3853c2.0035-1.5775 3.2908-4.0229 3.2908-6.7702 0-2.7476-1.2873-5.1927-3.2908-6.7703-2.0031 1.5776-3.2909 4.0227-3.2909 6.7703 0 2.7473 1.2878 5.1927 3.2909 6.7702"/></g></svg>