<svg width="22" height="6" viewBox="0 0 22 6" xmlns="http://www.w3.org/2000/svg"><g fill="#000" fill-rule="nonzero"><path d="M21.8392 0h-.79a.143.143 0 0 0-.1404.1205l-.7016 4.4645a.142.142 0 0 0 .14.1645h.7058a.237.237 0 0 0 .2347-.2008l.692-4.3837A.1425.1425 0 0 0 21.8392 0M12.109 1.5817h-.8227a.239.239 0 0 0-.1968.1043l-1.135 1.6715-.4805-1.6062a.2382.2382 0 0 0-.228-.1696h-.8087a.1425.1425 0 0 0-.1353.1885L9.2083 4.43l-.852 1.2025a.1425.1425 0 0 0 .1162.225h.8217a.236.236 0 0 0 .195-.1022l2.7373-3.9498a.1425.1425 0 0 0-.1175-.2238M2.835 1.6015c-.0935.6135-.5623.6135-1.0155.6135h-.258l.181-1.1457A.1425.1425 0 0 1 1.8833.949h.1182c.3087 0 .6 0 .7505.176.09.105.1175.261.083.4765M3.884.4365C3.641.1512 3.21.0002 2.6378.0002H.928a.2375.2375 0 0 0-.2348.2006L.0018 4.585a.1425.1425 0 0 0 .141.1645H.959a.2375.2375 0 0 0 .235-.2005l.1863-1.1828a.2375.2375 0 0 1 .2344-.2007h.5413c1.1262 0 1.7762-.545 1.946-1.625.0765-.4725.0032-.8438-.218-1.1038m2.7232 2.7386c-.079.4677-.4502.7817-.9237.7817-.2378 0-.4278-.0762-.5498-.2207-.121-.1435-.167-.3476-.1284-.5755.0737-.4636.4512-.7875.9174-.7875.2325 0 .4215.077.546.2227.1248.147.1743.3527.1385.5793m1.1413-1.5936h-.8187a.1425.1425 0 0 0-.1408.1203l-.0362.229-.0573-.083c-.1772-.2572-.5725-.3433-.967-.3433-.9047 0-1.6775.6853-1.828 1.6466-.0783.4794.033.938.305 1.2577.2495.2938.6065.4165 1.0313.4165.729 0 1.1332-.4688 1.1332-.4688l-.0365.2275a.1425.1425 0 0 0 .1405.165h.7375a.2375.2375 0 0 0 .2348-.2007l.4425-2.8022a.1417.1417 0 0 0-.1403-.1645M15.0303 1.6015c-.0933.6135-.562.6135-1.0153.6135h-.258l.1815-1.1457a.142.142 0 0 1 .1402-.1203h.1186c.3082 0 .6 0 .7504.176.0896.105.117.261.0828.4765m1.0482-1.165c-.2425-.2853-.6732-.4363-1.2455-.4363h-1.71a.2375.2375 0 0 0-.2345.2006L12.197 4.585a.142.142 0 0 0 .1405.1645h.8775a.1665.1665 0 0 0 .164-.1405l.1963-1.2428a.237.237 0 0 1 .2344-.2007h.5408c1.1267 0 1.7765-.545 1.9462-1.625.077-.4725.0033-.8438-.2182-1.1038m2.724 2.7386c-.0787.4677-.4505.7817-.924.7817-.2375 0-.4275-.0762-.55-.2207-.1207-.1435-.1665-.3476-.1282-.5755.0742-.4636.451-.7875.9175-.7875.2325 0 .4215.077.546.2227.1252.147.175.3527.1385.5793m1.141-1.5936h-.818a.142.142 0 0 0-.1408.1203l-.036.229-.0575-.083c-.1772-.2572-.5725-.3433-.9667-.3433-.9048 0-1.6773.6853-1.8275 1.6466-.0783.4794.0324.938.3044 1.2577.25.2938.6066.4165 1.0313.4165.729 0 1.1333-.4688 1.1333-.4688l-.0365.2275a.1425.1425 0 0 0 .141.165h.7374a.2375.2375 0 0 0 .2343-.2007l.443-2.8022a.1428.1428 0 0 0-.1415-.1645"/></g></svg>