<svg width="22" height="6" xmlns="http://www.w3.org/2000/svg"><path d="M21.84 0h-.79a.143.143 0 0 0-.141.12l-.702 4.465a.142.142 0 0 0 .14.165h.706a.237.237 0 0 0 .235-.201L21.98.165A.142.142 0 0 0 21.84 0m-9.731 1.582h-.823a.239.239 0 0 0-.196.104L9.955 3.358 9.474 1.75a.238.238 0 0 0-.228-.17h-.809a.142.142 0 0 0-.135.19l.906 2.659-.852 1.202a.142.142 0 0 0 .116.225h.822a.236.236 0 0 0 .195-.102l2.737-3.95a.142.142 0 0 0-.117-.223m-9.274.02c-.093.613-.562.613-1.015.613h-.258l.18-1.146a.142.142 0 0 1 .141-.12h.118c.31 0 .6 0 .751.176.09.105.117.261.083.476M3.884.436C3.641.151 3.21 0 2.638 0H.928a.237.237 0 0 0-.235.2L.002 4.586a.142.142 0 0 0 .14.165H.96a.237.237 0 0 0 .235-.201l.186-1.183a.237.237 0 0 1 .235-.2h.541c1.126 0 1.776-.545 1.946-1.625.076-.473.003-.844-.218-1.104m2.723 2.738a.912.912 0 0 1-.924.782c-.237 0-.427-.076-.55-.22-.12-.144-.166-.348-.128-.576a.916.916 0 0 1 .918-.788c.232 0 .421.077.546.223.124.147.174.353.138.58m1.141-1.594H6.93a.142.142 0 0 0-.141.12l-.036.229-.058-.083c-.177-.257-.572-.343-.967-.343-.904 0-1.677.685-1.828 1.646-.078.48.033.938.305 1.258.25.294.607.417 1.032.417.729 0 1.133-.47 1.133-.47l-.037.228a.142.142 0 0 0 .141.165h.737a.237.237 0 0 0 .235-.2l.443-2.803a.142.142 0 0 0-.14-.164m7.281.02c-.093.613-.562.613-1.015.613h-.258l.182-1.146a.142.142 0 0 1 .14-.12h.118c.309 0 .6 0 .75.176.09.105.118.261.084.476M16.079.436C15.836.151 15.406 0 14.833 0h-1.71a.237.237 0 0 0-.234.2l-.692 4.385a.142.142 0 0 0 .14.165h.878a.167.167 0 0 0 .164-.141l.196-1.243a.237.237 0 0 1 .235-.2h.54c1.127 0 1.777-.545 1.947-1.625.077-.473.003-.844-.218-1.104m2.724 2.738a.913.913 0 0 1-.924.782c-.238 0-.428-.076-.55-.22-.121-.144-.167-.348-.129-.576a.916.916 0 0 1 .918-.788c.232 0 .421.077.546.223.125.147.175.353.138.58m1.141-1.594h-.818a.142.142 0 0 0-.14.12l-.036.229-.058-.083c-.177-.257-.573-.343-.967-.343-.905 0-1.677.685-1.827 1.646-.079.48.032.938.304 1.258.25.294.607.417 1.031.417.73 0 1.134-.47 1.134-.47l-.037.228a.142.142 0 0 0 .141.165h.738a.237.237 0 0 0 .234-.2l.443-2.803a.143.143 0 0 0-.141-.164"/></svg>