<svg width="28" height="22" xmlns="http://www.w3.org/2000/svg"><g fill="#444"><path d="M8.47 21.818v-1.435a.849.849 0 0 0-.244-.655.85.85 0 0 0-.654-.25.886.886 0 0 0-.804.406.84.84 0 0 0-.756-.407.756.756 0 0 0-.67.34v-.282h-.498v2.283h.502v-1.265a.533.533 0 0 1 .136-.436.534.534 0 0 1 .424-.171c.33 0 .498.215.498.603v1.27h.503v-1.266a.538.538 0 0 1 .137-.434.539.539 0 0 1 .423-.173c.34 0 .502.215.502.603v1.27h.5zm2.8-1.14v-1.141h-.503v.277a.867.867 0 0 0-.718-.334 1.196 1.196 0 1 0 0 2.39.867.867 0 0 0 .718-.334v.277h.498l.004-1.135zm-1.85 0a.691.691 0 0 1 .716-.65.691.691 0 0 1 .665.701.691.691 0 0 1-.687.68.685.685 0 0 1-.512-.211.684.684 0 0 1-.187-.52h.005zm12.485-1.196a1.288 1.288 0 0 1 .478.09c.146.059.278.145.39.254.111.109.199.238.259.38.125.307.125.65 0 .957a1.155 1.155 0 0 1-.259.38 1.197 1.197 0 0 1-.39.254 1.355 1.355 0 0 1-.98 0 1.182 1.182 0 0 1-.389-.254 1.167 1.167 0 0 1-.256-.38 1.269 1.269 0 0 1 0-.957 1.167 1.167 0 0 1 .256-.38 1.182 1.182 0 0 1 .388-.253 1.288 1.288 0 0 1 .498-.098l.005.007zm0 .478a.742.742 0 0 0-.285.053.672.672 0 0 0-.227.15.7.7 0 0 0-.151.24.83.83 0 0 0 0 .593.698.698 0 0 0 .15.239.67.67 0 0 0 .228.15.778.778 0 0 0 .567 0 .684.684 0 0 0 .24-.15.693.693 0 0 0 .15-.24.83.83 0 0 0 0-.592.693.693 0 0 0-.15-.24.684.684 0 0 0-.24-.15.742.742 0 0 0-.287-.067l.005.014zm-7.931.718c0-.718-.445-1.196-1.084-1.196a1.196 1.196 0 1 0 .033 2.391 1.389 1.389 0 0 0 .936-.32l-.24-.368a1.09 1.09 0 0 1-.665.239.634.634 0 0 1-.684-.56h1.697c.007-.06.007-.12.007-.186zm-1.702-.201a.589.589 0 0 1 .6-.553.567.567 0 0 1 .405.158.567.567 0 0 1 .175.397l-1.18-.002zm3.796-.359a1.473 1.473 0 0 0-.718-.196c-.273 0-.436.1-.436.268s.173.196.388.225l.24.033c.497.072.799.282.799.684 0 .402-.383.746-1.041.746a1.65 1.65 0 0 1-.989-.296l.24-.388c.219.163.487.247.76.24.34 0 .522-.101.522-.278 0-.13-.13-.201-.402-.24l-.24-.033c-.511-.071-.789-.301-.789-.674 0-.454.373-.732.957-.732.327-.01.65.072.931.24l-.222.401zm2.393-.129h-.811v1.03c0 .24.08.383.33.383a.92.92 0 0 0 .44-.129l.144.426a1.169 1.169 0 0 1-.622.177c-.59 0-.795-.316-.795-.847v-1.04h-.464v-.454h.464v-.694h.503v.694h.81v.454zm1.72-.512c.121 0 .241.022.355.062l-.153.479a.81.81 0 0 0-.311-.058c-.326 0-.48.21-.48.589v1.279h-.497v-2.284h.493v.278a.675.675 0 0 1 .603-.335l-.01-.01zM10.17 8.847a9.07 9.07 0 0 1 3.373-7.056 3.286 3.286 0 0 0-.047-.033 8.75 8.75 0 0 0-.465-.3l-.07-.04a8.55 8.55 0 0 0-.512-.28l-.024-.01a8.669 8.669 0 0 0-.539-.244l-.045-.019a8.48 8.48 0 0 0-.55-.2L11.213.64a8.66 8.66 0 0 0-.552-.153 8.666 8.666 0 0 0-.094-.023 8.784 8.784 0 0 0-.565-.111L9.909.338a8.599 8.599 0 0 0-.591-.07L9.25.264a8.725 8.725 0 0 0-.636-.025C3.857.239 0 4.093 0 8.848c0 4.754 3.857 8.608 8.615 8.608a8.9 8.9 0 0 0 .635-.025l.068-.004c.199-.016.396-.04.591-.07l.092-.014a8.784 8.784 0 0 0 .565-.111l.094-.022a8.661 8.661 0 0 0 .552-.155l.08-.026a8.625 8.625 0 0 0 .55-.199l.044-.02a8.669 8.669 0 0 0 .539-.242l.024-.012a8.55 8.55 0 0 0 .513-.279l.069-.04a8.46 8.46 0 0 0 .465-.3 2.065 2.065 0 0 0 .047-.033 9.07 9.07 0 0 1-3.373-7.057M19.263.24c-.214 0-.425.01-.635.025l-.068.004a8.55 8.55 0 0 0-.59.07l-.092.014a8.462 8.462 0 0 0-.566.111 8.666 8.666 0 0 0-.094.023 8.512 8.512 0 0 0-.552.154l-.08.026a8.479 8.479 0 0 0-.549.2c-.015.005-.03.012-.044.018a8.552 8.552 0 0 0-.54.244l-.023.01a8.63 8.63 0 0 0-.513.28l-.069.04a8.522 8.522 0 0 0-.466.3 2.027 2.027 0 0 0-.047.033 9.07 9.07 0 0 1 3.374 7.057 9.07 9.07 0 0 1-3.374 7.056 8.688 8.688 0 0 0 .513.333l.068.04a8.608 8.608 0 0 0 .537.29c.177.088.357.168.54.244l.044.019c.18.073.364.138.55.2l.079.025c.181.058.366.109.552.154a8.617 8.617 0 0 0 .66.134l.092.014a8.406 8.406 0 0 0 .59.07l.068.004c.21.015.421.025.635.025 4.758 0 8.615-3.854 8.615-8.608 0-4.755-3.857-8.609-8.615-8.609"/><path d="M13.94 15.613a8.588 8.588 0 0 0 3.29-6.765 8.588 8.588 0 0 0-3.29-6.766 8.588 8.588 0 0 0-3.292 6.766 8.589 8.589 0 0 0 3.291 6.764"/></g></svg>