<svg width="28" height="22" viewBox="0 0 28 22" xmlns="http://www.w3.org/2000/svg"><g fill="#444"><path d="M8.4694 21.8183v-1.4348a.8485.8485 0 0 0-.2436-.656.85.85 0 0 0-.6538-.2503.8857.8857 0 0 0-.8041.4065.8402.8402 0 0 0-.7563-.4065.7564.7564 0 0 0-.67.3395v-.2821h-.4978v2.2837h.5025v-1.265a.533.533 0 0 1 .1359-.4364.5339.5339 0 0 1 .4241-.171c.3303 0 .4978.2152.4978.6026v1.2698h.5026v-1.265a.5378.5378 0 0 1 .1378-.4346.5387.5387 0 0 1 .4222-.1728c.3398 0 .5025.2152.5025.6026v1.2698h.5002zm2.8-1.1407V19.537h-.5026v.2773a.8666.8666 0 0 0-.718-.3347c-.6608 0-1.1965.5353-1.1965 1.1956 0 .6604.5357 1.1957 1.1966 1.1957a.8666.8666 0 0 0 .718-.3348v.2774h.4977l.0048-1.1359zm-1.85 0a.6914.6914 0 0 1 .7165-.65.6913.6913 0 0 1 .6655.7018.6914.6914 0 0 1-.6879.68.6847.6847 0 0 1-.5112-.2116.6836.6836 0 0 1-.1876-.5202h.0048zm12.4852-1.1956a1.2884 1.2884 0 0 1 .4786.0908c.1454.0582.278.1443.3901.2535.1108.1082.1986.2375.2585.3802.125.3066.125.65 0 .9565a1.155 1.155 0 0 1-.2585.3803 1.1967 1.1967 0 0 1-.39.2534 1.3555 1.3555 0 0 1-.9812 0 1.1823 1.1823 0 0 1-.3877-.2534 1.167 1.167 0 0 1-.2561-.3803 1.2689 1.2689 0 0 1 0-.9565 1.167 1.167 0 0 1 .256-.3802 1.1823 1.1823 0 0 1 .3878-.2535 1.2884 1.2884 0 0 1 .4977-.098l.0048.0072zm0 .4782a.7424.7424 0 0 0-.2848.0526.6725.6725 0 0 0-.2273.1507.7006.7006 0 0 0-.1508.2391.8292.8292 0 0 0 0 .593.6982.6982 0 0 0 .1508.2392.6701.6701 0 0 0 .2273.1506.7783.7783 0 0 0 .5672 0 .6845.6845 0 0 0 .2393-.1506.6934.6934 0 0 0 .1508-.2391.8292.8292 0 0 0 0-.593.6934.6934 0 0 0-.1508-.2392.6845.6845 0 0 0-.2393-.1507.7424.7424 0 0 0-.2872-.067l.0048.0144zm-7.931.7174c0-.7174-.445-1.1956-1.084-1.1956-.6609.0092-1.1891.552-1.1799 1.2123.0093.6604.5525 1.1882 1.2134 1.179a1.3887 1.3887 0 0 0 .9357-.3205l-.2393-.3682a1.0894 1.0894 0 0 1-.6653.2391.634.634 0 0 1-.6845-.5596h1.6968c.0072-.0598.0072-.1195.0072-.1865zm-1.7015-.2009a.5885.5885 0 0 1 .6007-.5524.5674.5674 0 0 1 .4046.1575.5665.5665 0 0 1 .1746.3973l-1.1799-.0024zm3.7956-.3587a1.4727 1.4727 0 0 0-.718-.196c-.2728 0-.4355.1004-.4355.2678s.1723.196.3877.2248l.2393.0334c.4978.0718.7993.2822.7993.684 0 .4017-.3829.746-1.041.746a1.6498 1.6498 0 0 1-.9884-.2965l.2393-.3874c.2196.1628.4877.247.761.2392.3399 0 .5218-.1005.5218-.2774 0-.1292-.1293-.2009-.402-.2392l-.2394-.0334c-.5121-.0718-.7897-.3013-.7897-.6744 0-.4543.3733-.7317.9572-.7317.3268-.011.65.072.931.2391l-.2226.4017zm2.3932-.129h-.8113v1.0306c0 .2391.0813.3826.3302.3826a.9195.9195 0 0 0 .4404-.1292l.1436.4257a1.1685 1.1685 0 0 1-.6223.177c-.5887 0-.7945-.3157-.7945-.8466V19.989h-.4643v-.4543h.4643v-.6935h.5026v.6935h.8113v.4543zm1.7206-.5118c.1208.0004.2406.0215.3542.0621l-.1531.4783a.8094.8094 0 0 0-.3111-.0574c-.3255 0-.4787.2105-.4787.5883v1.2793h-.4978v-2.2837h.493v.2774a.675.675 0 0 1 .6031-.3348l-.0096-.0095zM10.1697 8.8474c0-2.8458 1.3172-5.3892 3.3734-7.0567a3.2859 3.2859 0 0 0-.0471-.0325 8.7503 8.7503 0 0 0-.465-.3001c-.023-.0137-.0465-.0268-.0694-.0402a8.5497 8.5497 0 0 0-.5127-.279c-.0079-.0041-.016-.0077-.0241-.0115a8.6689 8.6689 0 0 0-.5387-.2432c-.0151-.0063-.03-.013-.045-.019a8.4808 8.4808 0 0 0-.5493-.1994c-.0263-.0086-.0528-.0179-.0794-.0263a8.6598 8.6598 0 0 0-.5519-.1537c-.0313-.0077-.0627-.0153-.0943-.0227a8.784 8.784 0 0 0-.5655-.1115c-.0304-.0048-.061-.009-.0916-.0139a8.599 8.599 0 0 0-.5914-.0693C9.2955.2664 9.273.2655 9.2505.2639a8.7252 8.7252 0 0 0-.6354-.025C3.8573.239 0 4.0934 0 8.8475c0 4.7544 3.8573 8.6085 8.6151 8.6085.214 0 .4255-.0096.6354-.0246.0225-.0017.045-.0027.0672-.0046.1991-.016.3961-.0401.5914-.0696.0306-.0047.0612-.0088.0916-.0138a8.784 8.784 0 0 0 .5655-.1115c.0316-.0074.063-.015.0943-.0224a8.6612 8.6612 0 0 0 .5519-.154c.0266-.0084.0531-.0175.0794-.0261a8.6251 8.6251 0 0 0 .5493-.1994c.015-.0063.0299-.013.045-.0192a8.6689 8.6689 0 0 0 .5387-.2432c.0081-.0038.0162-.0074.0241-.0114a8.5497 8.5497 0 0 0 .5127-.2791c.023-.0134.0464-.0263.0694-.0402a8.4591 8.4591 0 0 0 .465-.3001 2.0646 2.0646 0 0 0 .0471-.0325c-2.0562-1.6672-3.3734-4.2109-3.3734-7.0568M19.2634.2391c-.214 0-.4256.0096-.6354.0249-.0225.0016-.0453.0024-.0675.0043a8.5505 8.5505 0 0 0-.5909.0696c-.0309.0045-.0615.0088-.0921.0138a8.462 8.462 0 0 0-.5653.1115c-.0316.0074-.063.015-.0943.0227a8.5118 8.5118 0 0 0-.552.1538c-.0266.0083-.0527.0174-.0795.0263a8.4787 8.4787 0 0 0-.5493.1991c-.015.0063-.0294.013-.0445.019a8.5524 8.5524 0 0 0-.5394.2434c-.0077.0038-.0158.0074-.0237.0112a8.6306 8.6306 0 0 0-.513.2796c-.023.0131-.0458.026-.0685.0397-.159.0949-.314.1958-.466.3005a2.0273 2.0273 0 0 0-.0466.0323c2.056 1.6672 3.3734 4.2106 3.3734 7.0568 0 2.8459-1.3175 5.3895-3.3734 7.0565a8.6875 8.6875 0 0 0 .5126.3331c.0227.0136.0454.0263.0684.0397.1678.0983.3384.1925.5131.2795.008.0036.016.0072.0237.0113.1764.087.3563.1678.5394.2431.0151.0063.0295.013.0445.019.18.0729.3636.1384.5493.1994.0268.0088.0529.018.0794.0263.1814.0574.3657.1083.5521.1537a8.6173 8.6173 0 0 0 .6596.1342c.0306.0048.0612.009.0921.0136a8.406 8.406 0 0 0 .5909.0696c.0222.002.045.0029.0675.0045.2098.0154.4214.025.6354.025 4.7578 0 8.6149-3.8544 8.6149-8.6085 0-4.7544-3.8571-8.6085-8.615-8.6085"/><path d="M13.9392 15.6125c2.0033-1.5764 3.2908-4.0198 3.2908-6.765 0-2.7455-1.2875-5.1887-3.2908-6.765-2.0031 1.5763-3.2909 4.0195-3.2909 6.765 0 2.7452 1.2878 5.1886 3.2909 6.765"/></g></svg>