<svg width="28" height="22" viewBox="0 0 28 22" xmlns="http://www.w3.org/2000/svg"><g fill="#444"><path d="M5.1094 21.823v-1.4347a.851.851 0 0 0-.2443-.6577.8523.8523 0 0 0-.6555-.251.8857.8857 0 0 0-.8041.4065.8402.8402 0 0 0-.7563-.4065.7564.7564 0 0 0-.67.3395v-.2821h-.4978v2.286h.5025v-1.2578a.5354.5354 0 0 1 .1369-.4354.5363.5363 0 0 1 .4231-.172c.3303 0 .4978.2152.4978.6026v1.2722h.5026v-1.2674a.5378.5378 0 0 1 .1378-.4345.5387.5387 0 0 1 .4222-.1729c.3398 0 .5025.2152.5025.6026v1.2722l.5026-.0096zm7.4356-2.286h-.8185v-.6935h-.5026v.6935h-.4547v.4543h.4643v1.0522c0 .5308.2058.8465.7945.8465.22.0007.4357-.0606.6223-.177l-.1436-.4256a.9195.9195 0 0 1-.4404.1291c-.2393 0-.3302-.153-.3302-.3826v-1.0426h.8136l-.0047-.4543zm4.2454-.0574a.675.675 0 0 0-.603.3347v-.2773h-.493v2.286h.4977v-1.2817c0-.3778.1628-.5883.4787-.5883a.8118.8118 0 0 1 .311.0574l.1532-.4782a1.0657 1.0657 0 0 0-.3541-.0622l.0095.0096zm-6.4184.2391a1.7121 1.7121 0 0 0-.9334-.2391c-.5791 0-.9572.2774-.9572.7317 0 .373.2776.6026.7897.6744l.2393.0334c.2728.0383.402.11.402.2392 0 .177-.1818.2774-.5216.2774a1.2188 1.2188 0 0 1-.761-.2392l-.2394.3874c.29.2023.6373.3063.9908.2965.6605 0 1.0434-.3108 1.0434-.746 0-.4353-.3015-.6122-.7993-.684l-.2393-.0334c-.2154-.0287-.3877-.0718-.3877-.2248s.1627-.2679.4355-.2679a1.475 1.475 0 0 1 .718.1961l.2202-.4017zm13.3323-.2391a.675.675 0 0 0-.6031.3347v-.2773h-.493v2.286h.4978v-1.2817c0-.3778.1627-.5883.4786-.5883a.8118.8118 0 0 1 .3111.0574l.1532-.4782a1.0657 1.0657 0 0 0-.3542-.0622l.0096.0096zm-6.4137 1.1956c-.012.3249.1136.6397.3459.8673.2323.2275.5498.3468.8746.3284.2989.0152.5926-.0821.8233-.2726l-.2394-.4018a1.0056 1.0056 0 0 1-.5982.2057.7344.7344 0 0 1-.6755-.7318c0-.3825.294-.7009.6755-.7317.2163.0024.4262.0745.5982.2056l.2394-.4017a1.1972 1.1972 0 0 0-.8233-.2726 1.1564 1.1564 0 0 0-.8746.3284 1.1545 1.1545 0 0 0-.3459.8673v.0095zm4.6619 0V19.537h-.4978v.2773a.869.869 0 0 0-.718-.3347c-.6608 0-1.1965.5353-1.1965 1.1956 0 .6604.5357 1.1957 1.1966 1.1957a.869.869 0 0 0 .7179-.3348v.2774h.4978v-1.1383zm-1.8523 0a.6914.6914 0 0 1 .7163-.65.6913.6913 0 0 1 .6656.7018.6914.6914 0 0 1-.688.68.6871.6871 0 0 1-.5071-.2142.686.686 0 0 1-.1868-.5176zm-6.0069-1.1956c-.6608.0092-1.189.552-1.1798 1.2124.0093.6603.5525 1.1881 1.2133 1.1789.3444.0176.683-.0932.9501-.3109l-.2393-.3683a1.0894 1.0894 0 0 1-.6653.2392.634.634 0 0 1-.6844-.5596h1.6991V20.68c0-.7174-.4451-1.1957-1.0865-1.1957l-.0072-.0047zm0 .4447a.5674.5674 0 0 1 .4046.1575.5665.5665 0 0 1 .1746.3973h-1.1966a.5885.5885 0 0 1 .6079-.5548h.0095zm12.4708.7557v-2.0613h-.4786v1.1956a.869.869 0 0 0-.718-.3347c-.6608 0-1.1966.5353-1.1966 1.1956 0 .6604.5358 1.1957 1.1966 1.1957a.869.869 0 0 0 .718-.3348v.2774h.4786V20.68zm-1.8403 0a.6914.6914 0 0 1 .7163-.65.6913.6913 0 0 1 .6656.7018.6914.6914 0 0 1-.688.68.6871.6871 0 0 1-.5071-.2142.686.686 0 0 1-.1868-.5176zm-16.8072 0v-1.143h-.4978v.2773a.869.869 0 0 0-.718-.3347c-.6608 0-1.1965.5353-1.1965 1.1956 0 .6604.5357 1.1957 1.1966 1.1957a.869.869 0 0 0 .7179-.3348v.2774h.4978V20.68zm-1.8523 0a.6914.6914 0 0 1 .7163-.65.6913.6913 0 0 1 .6656.7018.6914.6914 0 0 1-.688.68.6871.6871 0 0 1-.5103-.2124.686.686 0 0 1-.1884-.5194h.0048zM10.1697 8.8474c0-2.8458 1.3172-5.3892 3.3734-7.0567a3.2859 3.2859 0 0 0-.0471-.0325 8.7503 8.7503 0 0 0-.465-.3001c-.023-.0137-.0465-.0268-.0694-.0402a8.5497 8.5497 0 0 0-.5127-.279c-.0079-.0041-.016-.0077-.0241-.0115a8.6689 8.6689 0 0 0-.5387-.2432c-.0151-.0063-.03-.013-.045-.019a8.4808 8.4808 0 0 0-.5493-.1994c-.0263-.0086-.0528-.0179-.0794-.0263a8.6598 8.6598 0 0 0-.5519-.1537c-.0313-.0077-.0627-.0153-.0943-.0227a8.784 8.784 0 0 0-.5655-.1115c-.0304-.0048-.061-.009-.0916-.0139a8.599 8.599 0 0 0-.5914-.0693C9.2955.2664 9.273.2655 9.2505.2639a8.7252 8.7252 0 0 0-.6354-.025C3.8573.239 0 4.0934 0 8.8475c0 4.7544 3.8573 8.6085 8.6151 8.6085.214 0 .4255-.0096.6354-.0246.0225-.0017.045-.0027.0672-.0046.1991-.016.3961-.0401.5914-.0696.0306-.0047.0612-.0088.0916-.0138a8.784 8.784 0 0 0 .5655-.1115c.0316-.0074.063-.015.0943-.0224a8.6612 8.6612 0 0 0 .5519-.154c.0266-.0084.0531-.0175.0794-.0261a8.6251 8.6251 0 0 0 .5493-.1994c.015-.0063.0299-.013.045-.0192a8.6689 8.6689 0 0 0 .5387-.2432c.0081-.0038.0162-.0074.0241-.0114a8.5497 8.5497 0 0 0 .5127-.2791c.023-.0134.0464-.0263.0694-.0402a8.4591 8.4591 0 0 0 .465-.3001 2.0646 2.0646 0 0 0 .0471-.0325c-2.0562-1.6672-3.3734-4.2109-3.3734-7.0568M19.2634.2391c-.214 0-.4256.0096-.6354.0249-.0225.0016-.0453.0024-.0675.0043a8.5505 8.5505 0 0 0-.5909.0696c-.0309.0045-.0615.0088-.0921.0138a8.462 8.462 0 0 0-.5653.1115c-.0316.0074-.063.015-.0943.0227a8.5118 8.5118 0 0 0-.552.1538c-.0266.0083-.0527.0174-.0795.0263a8.4787 8.4787 0 0 0-.5493.1991c-.015.0063-.0294.013-.0445.019a8.5524 8.5524 0 0 0-.5394.2434c-.0077.0038-.0158.0074-.0237.0112a8.6306 8.6306 0 0 0-.513.2796c-.023.0131-.0458.026-.0685.0397-.159.0949-.314.1958-.466.3005a2.0273 2.0273 0 0 0-.0466.0323c2.056 1.6672 3.3734 4.2106 3.3734 7.0568 0 2.8459-1.3175 5.3895-3.3734 7.0565a8.6875 8.6875 0 0 0 .5126.3331c.0227.0136.0454.0263.0684.0397.1678.0983.3384.1925.5131.2795.008.0036.016.0072.0237.0113.1764.087.3563.1678.5394.2431.0151.0063.0295.013.0445.019.18.0729.3636.1384.5493.1994.0268.0088.0529.018.0794.0263.1814.0574.3657.1083.5521.1537a8.6173 8.6173 0 0 0 .6596.1342c.0306.0048.0612.009.0921.0136a8.406 8.406 0 0 0 .5909.0696c.0222.002.045.0029.0675.0045.2098.0154.4214.025.6354.025 4.7578 0 8.6149-3.8544 8.6149-8.6085 0-4.7544-3.8571-8.6085-8.615-8.6085"/><path d="M13.9392 15.6125c2.0033-1.5764 3.2908-4.0198 3.2908-6.765 0-2.7455-1.2875-5.1887-3.2908-6.765-2.0031 1.5763-3.2909 4.0195-3.2909 6.765 0 2.7452 1.2878 5.1886 3.2909 6.765"/></g></svg>