<svg width="36" height="11" xmlns="http://www.w3.org/2000/svg"><path d="M12.682 10.815L14.505.184h2.914l-1.823 10.63zM26.167.446A7.56 7.56 0 0 0 23.554 0c-2.88 0-4.908 1.442-4.925 3.508-.017 1.527 1.448 2.38 2.554 2.888 1.134.52 1.515.853 1.51 1.318-.007.712-.906 1.038-1.744 1.038-1.166 0-1.786-.16-2.743-.558l-.376-.169-.409 2.38c.681.297 1.94.554 3.247.567 3.064 0 5.053-1.425 5.075-3.631.011-1.21-.765-2.13-2.447-2.889-1.019-.492-1.643-.82-1.636-1.317 0-.442.528-.915 1.67-.915a5.398 5.398 0 0 1 2.18.408l.262.122.395-2.304zm3.88 6.6l1.161-2.971c-.017.028.24-.616.386-1.015l.198.916.674 3.07h-2.42zM33.64.194h-2.252c-.698 0-1.22.19-1.527.882l-4.328 9.742h3.06s.5-1.31.614-1.597l3.733.004c.087.372.354 1.593.354 1.593H36L33.641.195zM10.238.192L7.384 7.441 7.08 5.968 6.058 1.083C5.882.41 5.37.21 4.738.186h-4.7L0 .407c1.143.275 2.165.672 3.061 1.166l2.592 9.232 3.083-.003 4.59-10.61h-3.088z" fill="#444"/></svg>