<svg width="28" height="18" xmlns="http://www.w3.org/2000/svg"><g fill="#444"><path d="M27.78 9.948s-7.59 5.36-21.494 7.758h21.495V9.948z"/><path d="M27.778.203v17.502H.202V.204L27.777.203zm.1-.203L0 .003v17.905h27.98L27.978 0h-.1z"/><path d="M3.37 8.523c-.249.224-.571.322-1.081.322h-.213V6.166h.212c.51 0 .82.091 1.081.328.273.243.438.62.438 1.008 0 .39-.165.778-.438 1.021M2.447 5.48h-1.16v4.05h1.154c.613 0 1.055-.144 1.444-.467.462-.382.735-.959.735-1.555 0-1.196-.893-2.028-2.173-2.028M4.984 9.53h.79V5.479h-.79zm2.72-2.497c-.474-.175-.613-.29-.613-.51 0-.255.248-.449.589-.449.236 0 .43.098.637.328l.413-.541a1.77 1.77 0 0 0-1.19-.45c-.716 0-1.263.499-1.263 1.162 0 .558.255.844.996 1.11.31.11.467.182.546.231.158.103.237.25.237.42 0 .328-.26.571-.613.571-.377 0-.68-.189-.862-.54l-.51.491c.364.535.8.772 1.402.772.82 0 1.396-.547 1.396-1.33 0-.645-.266-.936-1.165-1.265m1.414.474c0 1.19.935 2.114 2.137 2.114.34 0 .631-.067.99-.236v-.93c-.315.316-.595.444-.953.444-.795 0-1.36-.577-1.36-1.398 0-.778.582-1.391 1.323-1.391.377 0 .662.134.99.456v-.93c-.346-.176-.631-.249-.971-.249-1.197 0-2.156.942-2.156 2.12m9.39.693l-1.08-2.721h-.863l1.718 4.155h.425l1.75-4.155H19.6zm2.306 1.33h2.24v-.686h-1.45V7.751H23v-.686h-1.398v-.899h1.45V5.48h-2.239zm3.782-2.186h-.23V6.118h.243c.492 0 .76.206.76.6 0 .407-.268.627-.772.627m1.584-.67c0-.758-.522-1.196-1.433-1.196h-1.171v4.052h.789V7.903h.103l1.093 1.628h.971l-1.275-1.707c.596-.12.923-.528.923-1.148m-9.37.843a2.155 2.155 0 1 1-4.31.002 2.155 2.155 0 0 1 4.31-.002m9.721-1.555a.25.25 0 0 1-.247-.254.25.25 0 0 1 .247-.255c.135 0 .246.115.246.255a.25.25 0 0 1-.246.254m.001-.565a.308.308 0 0 0-.31.31c0 .173.139.31.31.31a.31.31 0 0 0 .306-.31.31.31 0 0 0-.306-.31"/></g></svg>