<svg width="28" height="22" xmlns="http://www.w3.org/2000/svg"><g fill="#444"><path d="M5.11 21.823v-1.435a.851.851 0 0 0-.245-.657.852.852 0 0 0-.655-.251.886.886 0 0 0-.804.406.84.84 0 0 0-.757-.406.756.756 0 0 0-.67.34v-.283h-.498v2.286h.503v-1.258a.535.535 0 0 1 .137-.435.536.536 0 0 1 .423-.172c.33 0 .498.215.498.602v1.273h.502v-1.268a.538.538 0 0 1 .138-.434.539.539 0 0 1 .422-.173c.34 0 .503.215.503.602v1.273l.502-.01zm7.435-2.286h-.819v-.694h-.502v.694h-.455v.454h.464v1.052c0 .531.206.847.795.847.22 0 .436-.06.622-.177l-.143-.426a.92.92 0 0 1-.44.13c-.24 0-.33-.154-.33-.383V19.99h.813l-.005-.454zm4.245-.057a.675.675 0 0 0-.603.334v-.277h-.493v2.286h.498v-1.282c0-.378.163-.588.479-.588a.812.812 0 0 1 .31.057l.154-.478a1.066 1.066 0 0 0-.354-.062l.01.01zm-6.418.239a1.712 1.712 0 0 0-.933-.24c-.58 0-.958.278-.958.732 0 .373.278.603.79.675l.24.033c.272.038.401.11.401.24 0 .176-.181.277-.521.277a1.219 1.219 0 0 1-.761-.24l-.24.388c.29.202.638.306.991.296.66 0 1.044-.31 1.044-.746 0-.435-.302-.612-.8-.684l-.239-.033c-.215-.029-.388-.072-.388-.225s.163-.268.436-.268a1.475 1.475 0 0 1 .718.196l.22-.401zm13.332-.24a.675.675 0 0 0-.603.335v-.277h-.493v2.286h.498v-1.282c0-.378.163-.588.479-.588a.812.812 0 0 1 .31.057l.154-.478a1.066 1.066 0 0 0-.354-.062l.01.01zm-6.413 1.196a1.154 1.154 0 0 0 1.22 1.196c.299.015.593-.082.823-.273l-.239-.402a1.006 1.006 0 0 1-.598.206.734.734 0 0 1-.676-.732c0-.382.294-.7.676-.731.216.002.426.074.598.205l.24-.401a1.197 1.197 0 0 0-.824-.273 1.156 1.156 0 0 0-.875.328 1.155 1.155 0 0 0-.345.868v.01zm4.661 0v-1.138h-.497v.277a.869.869 0 0 0-.718-.334 1.196 1.196 0 1 0 0 2.39.869.869 0 0 0 .718-.334v.277h.497v-1.138zm-1.852 0a.691.691 0 0 1 .716-.65.691.691 0 0 1 .666.702.691.691 0 0 1-.688.68.687.687 0 0 1-.507-.214.686.686 0 0 1-.187-.518zm-6.007-1.195a1.196 1.196 0 1 0 .034 2.39c.344.018.683-.092.95-.31l-.24-.368a1.09 1.09 0 0 1-.665.239.634.634 0 0 1-.684-.56h1.699v-.191c0-.717-.445-1.196-1.087-1.196l-.007-.004zm0 .444a.567.567 0 0 1 .405.158.567.567 0 0 1 .174.397h-1.196a.589.589 0 0 1 .608-.555h.01zm12.471.756v-2.061h-.479v1.195a.869.869 0 0 0-.718-.334 1.196 1.196 0 1 0 0 2.39.869.869 0 0 0 .718-.334v.277h.48V20.68zm-1.84 0a.691.691 0 0 1 .716-.65.691.691 0 0 1 .666.702.691.691 0 0 1-.688.68.687.687 0 0 1-.507-.214.686.686 0 0 1-.187-.518zm-16.807 0v-1.143h-.498v.277a.869.869 0 0 0-.718-.334 1.196 1.196 0 1 0 0 2.39.869.869 0 0 0 .718-.334v.277h.498V20.68zm-1.853 0a.691.691 0 0 1 .717-.65.691.691 0 0 1 .665.702.691.691 0 0 1-.688.68.687.687 0 0 1-.51-.213.686.686 0 0 1-.189-.519h.005zM10.17 8.847a9.07 9.07 0 0 1 3.373-7.056 3.286 3.286 0 0 0-.047-.033 8.75 8.75 0 0 0-.465-.3l-.07-.04a8.55 8.55 0 0 0-.512-.28l-.024-.01a8.669 8.669 0 0 0-.539-.244l-.045-.019a8.48 8.48 0 0 0-.55-.2L11.213.64a8.66 8.66 0 0 0-.552-.153 8.666 8.666 0 0 0-.094-.023 8.784 8.784 0 0 0-.565-.111L9.909.338a8.599 8.599 0 0 0-.591-.07L9.25.264a8.725 8.725 0 0 0-.636-.025C3.857.239 0 4.093 0 8.848c0 4.754 3.857 8.608 8.615 8.608a8.9 8.9 0 0 0 .635-.025l.068-.004c.199-.016.396-.04.591-.07l.092-.014a8.784 8.784 0 0 0 .565-.111l.094-.022a8.661 8.661 0 0 0 .552-.155l.08-.026a8.625 8.625 0 0 0 .55-.199l.044-.02a8.669 8.669 0 0 0 .539-.242l.024-.012a8.55 8.55 0 0 0 .513-.279l.069-.04a8.46 8.46 0 0 0 .465-.3 2.065 2.065 0 0 0 .047-.033 9.07 9.07 0 0 1-3.373-7.057M19.263.24c-.214 0-.425.01-.635.025l-.068.004a8.55 8.55 0 0 0-.59.07l-.092.014a8.462 8.462 0 0 0-.566.111 8.666 8.666 0 0 0-.094.023 8.512 8.512 0 0 0-.552.154l-.08.026a8.479 8.479 0 0 0-.549.2c-.015.005-.03.012-.044.018a8.552 8.552 0 0 0-.54.244l-.023.01a8.63 8.63 0 0 0-.513.28l-.069.04a8.522 8.522 0 0 0-.466.3 2.027 2.027 0 0 0-.047.033 9.07 9.07 0 0 1 3.374 7.057 9.07 9.07 0 0 1-3.374 7.056 8.688 8.688 0 0 0 .513.333l.068.04a8.608 8.608 0 0 0 .537.29c.177.088.357.168.54.244l.044.019c.18.073.364.138.55.2l.079.025c.181.058.366.109.552.154a8.617 8.617 0 0 0 .66.134l.092.014a8.406 8.406 0 0 0 .59.07l.068.004c.21.015.421.025.635.025 4.758 0 8.615-3.854 8.615-8.608 0-4.755-3.857-8.609-8.615-8.609"/><path d="M13.94 15.613a8.588 8.588 0 0 0 3.29-6.765 8.588 8.588 0 0 0-3.29-6.766 8.588 8.588 0 0 0-3.292 6.766 8.589 8.589 0 0 0 3.291 6.764"/></g></svg>