<svg width="36" height="11" viewBox="0 0 36 11" xmlns="http://www.w3.org/2000/svg"><g fill="#444" fill-rule="nonzero"><path d="M12.6823 10.8145L14.5047.1843h2.9146l-1.8235 10.6302zM26.1669.4464C25.5894.2307 24.6845 0 23.5545 0c-2.8799-.0003-4.9088 1.4416-4.9259 3.508-.0162 1.5273 1.4483 2.3793 2.554 2.8878 1.1344.5207 1.5158.8532 1.5104 1.3186-.0071.7121-.906 1.038-1.7438 1.038-1.1665-.0002-1.7863-.161-2.7435-.558l-.3755-.1692-.4091 2.3796c.6809.2969 1.9396.554 3.2467.5674 3.0638-.0002 5.0527-1.4252 5.0753-3.6316.011-1.2094-.7655-2.1295-2.447-2.8882-1.0187-.492-1.6427-.8198-1.6362-1.3177.0001-.442.5282-.9144 1.6692-.9144.9533-.015 1.6435.1919 2.1814.4073l.2613.1224.395-2.3036zM30.0467 7.0462c.2411-.6126 1.1613-2.9713 1.1613-2.9713-.0171.0281.2392-.6155.3864-1.0146l.1972.9162s.558 2.5377.6746 3.0698l-2.4195-.0001zM33.641.1945h-2.2524c-.6976 0-1.2199.1897-1.5263.882l-4.3286 9.7412h3.0606s.5005-1.3096.6137-1.597c.3346 0 3.3076.0044 3.7327.0044.0873.372.3546 1.5928.3546 1.5928L36 10.8177 33.641.1945zM10.2378.192l-2.8535 7.249-.304-1.473-.0002-.0004-1.022-4.8844C5.8819.4102 5.37.2094 4.7372.1857h-4.7L0 .4071c1.1432.275 2.1654.6719 3.0614 1.1657l2.5913 9.2324 3.0838-.0036L13.3251.1921h-3.0873z"/></g></svg>