<svg width="28" height="18" viewBox="0 0 28 18" xmlns="http://www.w3.org/2000/svg"><g fill="#444"><path d="M27.7808 9.9477s-7.5911 5.3599-21.4943 7.7587h21.4943V9.9477z"/><path d="M27.7779.203v17.5016H.202L.2011.2036 27.7778.203zm.101-.203L0 .0028v17.905h27.98L27.9783 0h-.0994z"/><path d="M3.3692 8.523c-.248.2244-.5704.3222-1.0807.3222h-.212V6.166h.212c.5103 0 .82.0914 1.0807.3278.2732.2432.4374.6204.4374 1.0084 0 .389-.1642.7776-.4374 1.0209m-.9225-3.0434H1.2874v4.0512h1.1532c.6131 0 1.0558-.1446 1.4445-.4677.462-.3823.735-.9588.735-1.555 0-1.1957-.8926-2.0285-2.1734-2.0285M4.9835 9.531h.7898V5.4794h-.7898zM7.7044 7.0343c-.474-.1755-.613-.2911-.613-.5101 0-.2551.248-.449.5883-.449.2365 0 .4311.0973.6368.328l.4133-.5414c-.3396-.2972-.7458-.449-1.1898-.449-.7164 0-1.2628.4977-1.2628 1.1607 0 .5581.2544.844.9961 1.111.3093.1092.4667.1819.546.2307.1578.1031.2368.2492.2368.4193 0 .3282-.2608.5715-.6132.5715-.3767 0-.6801-.1886-.8619-.5405l-.5103.4916c.3639.5346.801.7714 1.402.7714.8205 0 1.3963-.5461 1.3963-1.3303 0-.6438-.2662-.935-1.1646-1.264M9.1181 7.5081c0 1.1908.9345 2.1142 2.1371 2.1142.34 0 .6312-.0669.9902-.236V8.456c-.3157.3162-.5954.4438-.9534.4438-.7954 0-1.36-.5771-1.36-1.3976 0-.7778.5824-1.3913 1.3232-1.3913.3767 0 .6619.1344.9902.4558v-.9298c-.3467-.176-.6317-.2489-.9716-.2489-1.1965 0-2.1557.9421-2.1557 2.1201M18.5073 8.201l-1.0796-2.7213h-.8629L18.283 9.635h.425l1.7491-4.1553h-.856zM20.8142 9.531h2.2397V8.845h-1.4505V7.7515h1.3972v-.6862h-1.3972v-.8992h1.4505v-.6865h-2.2397zM24.5965 7.3448h-.2307v-1.227h.2433c.492 0 .7592.2062.7592.6004 0 .4073-.2673.6266-.7718.6266m1.5845-.6691c0-.7585-.5222-1.1962-1.4329-1.1962H23.577V9.531h.7888V7.9034h.1031L25.562 9.531h.9712l-1.2747-1.7067c.595-.121.9225-.5282.9225-1.1485M16.811 7.5193c0 1.1903-.9643 2.1553-2.154 2.1553-1.1895 0-2.1537-.965-2.1537-2.1553 0-1.1904.9642-2.1552 2.1538-2.1552s2.154.9648 2.154 2.1552M26.532 5.9642c-.136 0-.2471-.1133-.2471-.2545 0-.1418.1098-.255.2471-.255.1353 0 .2456.1157.2456.255 0 .1401-.1103.2545-.2456.2545m.0013-.5653a.3085.3085 0 0 0-.31.3104c0 .1723.1387.3103.31.3103.1683 0 .3062-.1396.3062-.3103 0-.17-.138-.3104-.3062-.3104"/></g></svg>